<svg width="57" height="46" viewBox="0 0 57 46" fill="none" xmlns="http://www.w3.org/2000/svg">
<path fill-rule="evenodd" clip-rule="evenodd" d="M42.75 7.03557e-06H42.9376C45.4641 -0.000136714 47.641 -0.000251775 49.3842 0.236188C51.2524 0.489562 53.0432 1.06094 54.4958 2.52621C55.9483 3.99151 56.5147 5.79802 56.7659 7.68261C57.0002 9.44113 57.0001 11.6371 57 14.1857V14.375V31.8142C57.0001 34.3629 57.0002 36.5588 56.7659 38.3174C56.5147 40.202 55.9483 42.0086 54.4958 43.4737C53.0432 44.9391 51.2524 45.5104 49.3842 45.7639C47.641 46.0003 45.4641 46.0003 42.9376 46H14.0625C11.536 46.0003 9.35913 46.0003 7.61578 45.7639C5.74761 45.5104 3.95667 44.9391 2.50431 43.4737C1.05167 42.0086 0.485374 40.202 0.234005 38.3174C-0.000263214 36.5588 -0.000263214 34.3629 1.90735e-05 31.8145V14.1857C-0.000263214 11.6371 -0.000263214 9.44113 0.234005 7.68261C0.485374 5.79802 1.05167 3.99151 2.50431 2.52621C3.95667 1.06094 5.74761 0.489562 7.61578 0.236188C9.35913 -0.000251775 11.536 -0.000136714 14.0625 7.03557e-06H42.75ZM39.9 11.5C43.048 11.5 45.6 14.0744 45.6 17.25C45.6 20.4257 43.048 23 39.9 23C36.752 23 34.2 20.4257 34.2 17.25C34.2 14.0744 36.752 11.5 39.9 11.5ZM45.6 28.75C45.6 27.1621 44.324 25.875 42.75 25.875H42.7407H42.7135H42.608H42.2123H40.841H37.05C32.9548 25.875 29.1775 26.5423 27.0437 30.1527C26.2377 31.5166 26.68 33.2813 28.032 34.0943C29.3841 34.9077 31.1334 34.4612 31.9394 33.0973C32.3925 32.3308 33.2293 31.625 37.05 31.625H40.8411H42.2123H42.608H42.7136H42.7408H42.7477C44.3217 31.625 45.6 30.3379 45.6 28.75ZM28.5 11.5C30.0741 11.5 31.35 12.7872 31.35 14.375C31.35 15.9628 30.0741 17.25 28.5 17.25H14.25C12.676 17.25 11.4 15.9628 11.4 14.375C11.4 12.7872 12.676 11.5 14.25 11.5H28.5ZM28.5 23C28.5 21.4121 27.2241 20.125 25.65 20.125H14.25C12.676 20.125 11.4 21.4121 11.4 23C11.4 24.5879 12.676 25.875 14.25 25.875H25.65C27.2241 25.875 28.5 24.5879 28.5 23ZM19.95 28.75C21.5241 28.75 22.8 30.0371 22.8 31.625C22.8 33.2129 21.5241 34.5 19.95 34.5H14.25C12.676 34.5 11.4 33.2129 11.4 31.625C11.4 30.0371 12.676 28.75 14.25 28.75H19.95Z" fill="#E25626"/>
</svg>
