<svg width="99" height="46" viewBox="0 0 99 46" fill="none" xmlns="http://www.w3.org/2000/svg">
<path d="M99 23C99 35.7024 88.7024 46 76 46C63.2974 46 53 35.7024 53 23C53 10.2974 63.2974 0 76 0C88.7024 0 99 10.2974 99 23Z" fill="#E25626"/>
<path opacity="0.7" fill-rule="evenodd" clip-rule="evenodd" d="M75 0.0214844V22.0001L82.6456 0.97481C92.108 3.82597 99 12.6082 99 23.0001C99 35.7026 88.7024 46.0001 76 46.0001C63.2974 46.0001 53 35.7026 53 23.0001C53 10.6326 62.7614 0.54504 75 0.0214844Z" fill="white"/>
<path d="M46 23C46 35.7024 35.7024 46 23 46C10.2974 46 0 35.7024 0 23C0 10.2974 10.2974 0 23 0C35.7024 0 46 10.2974 46 23Z" fill="#E25626"/>
</svg>
