<svg width="99" height="46" viewBox="0 0 99 46" fill="none" xmlns="http://www.w3.org/2000/svg">
<path d="M99 23C99 35.7024 88.7024 46 76 46C63.2974 46 53 35.7024 53 23C53 10.2974 63.2974 0 76 0C88.7024 0 99 10.2974 99 23Z" fill="#E25626"/>
<path d="M46 23C46 35.7024 35.7024 46 23 46C10.2974 46 0 35.7024 0 23C0 10.2974 10.2974 0 23 0C35.7024 0 46 10.2974 46 23Z" fill="#E25626"/>
<path opacity="0.7" fill-rule="evenodd" clip-rule="evenodd" d="M75 0.00439453V21.983L58.5656 37.985C55.0969 33.9576 53 28.7152 53 22.983C53 10.6155 62.7614 0.52795 75 0.00439453Z" fill="white"/>
</svg>
