<svg width="21" height="19" viewBox="0 0 21 19" fill="none" xmlns="http://www.w3.org/2000/svg">
<g clip-path="url(#clip0_235_18)">
<path fill-rule="evenodd" clip-rule="evenodd" d="M10.4601 16.0404C10.1795 15.9008 9.84977 15.9008 9.56922 16.0404L5.61925 18.0055C4.88252 18.3721 4.0431 17.7416 4.18985 16.9319L4.91664 12.9219C4.97767 12.5851 4.86225 12.2405 4.61069 12.0085L1.57249 9.20594C0.951242 8.63289 1.27698 7.59536 2.11429 7.48023L6.41285 6.88914C6.7338 6.84501 7.01348 6.64813 7.16329 6.36088L9.12799 2.59368C9.5018 1.8769 10.5275 1.87691 10.9013 2.59368L12.866 6.36088C13.0158 6.64813 13.2955 6.84501 13.6164 6.88914L17.915 7.48023C18.7523 7.59536 19.0781 8.63289 18.4568 9.20594L15.4186 12.0085C15.167 12.2405 15.0516 12.5851 15.1127 12.9219L15.8394 16.9319C15.9862 17.7416 15.1468 18.3721 14.4101 18.0055L10.4601 16.0404Z" fill="#FFB500"/>
</g>
<defs>
<clipPath id="clip0_235_18">
<rect width="20" height="18" fill="white" transform="translate(0.0146484 0.893555)"/>
</clipPath>
</defs>
</svg>
