<svg width="36" height="26" viewBox="0 0 36 26" fill="none" xmlns="http://www.w3.org/2000/svg">
    <path d="M3.75 6.85661C5.82107 6.85661 7.5 5.38368 7.5 3.56673C7.5 1.74978 5.82107 0.276855 3.75 0.276855C1.67893 0.276855 0 1.74978 0 3.56673C0 5.38368 1.67893 6.85661 3.75 6.85661Z" fill="currentColor"/>
    <path d="M17.6841 6.85661C19.7551 6.85661 21.4341 5.38368 21.4341 3.56673C21.4341 1.74978 19.7551 0.276855 17.6841 0.276855C15.613 0.276855 13.9341 1.74978 13.9341 3.56673C13.9341 5.38368 15.613 6.85661 17.6841 6.85661Z" fill="currentColor"/>
    <path d="M31.6172 6.85661C33.6883 6.85661 35.3672 5.38368 35.3672 3.56673C35.3672 1.74978 33.6883 0.276855 31.6172 0.276855C29.5461 0.276855 27.8672 1.74978 27.8672 3.56673C27.8672 5.38368 29.5461 6.85661 31.6172 6.85661Z" fill="currentColor"/>
    <path d="M3.75 25.9377C5.82107 25.9377 7.5 24.4647 7.5 22.6478C7.5 20.8308 5.82107 19.3579 3.75 19.3579C1.67893 19.3579 0 20.8308 0 22.6478C0 24.4647 1.67893 25.9377 3.75 25.9377Z" fill="currentColor"/>
    <path d="M17.769 25.9377C19.8401 25.9377 21.519 24.4647 21.519 22.6478C21.519 20.8308 19.8401 19.3579 17.769 19.3579C15.698 19.3579 14.019 20.8308 14.019 22.6478C14.019 24.4647 15.698 25.9377 17.769 25.9377Z" fill="currentColor"/>
    <path d="M3.75 6.33691V20.2178" stroke="currentColor" stroke-width="1.875" stroke-linecap="round" stroke-linejoin="round"/>
    <path d="M17.6841 6.33691V20.2178" stroke="currentColor" stroke-width="1.875" stroke-linecap="round" stroke-linejoin="round"/>
    <path d="M31.6174 6.22461V10.0642C31.6174 10.8713 31.198 11.6453 30.4514 12.216C29.7048 12.7867 28.6922 13.1073 27.6364 13.1073H3.75" stroke="currentColor" stroke-width="1.875" stroke-linecap="round" stroke-linejoin="round"/>
</svg>
