<svg width="8" height="33" viewBox="0 0 8 33" fill="none" xmlns="http://www.w3.org/2000/svg">
    <path d="M3.75 6.57975C5.82107 6.57975 7.5 5.10683 7.5 3.28988C7.5 1.47293 5.82107 0 3.75 0C1.67893 0 0 1.47293 0 3.28988C0 5.10683 1.67893 6.57975 3.75 6.57975Z" fill="currentColor"/>
    <path d="M3.75 19.7394C5.82107 19.7394 7.5 18.2665 7.5 16.4495C7.5 14.6326 5.82107 13.1597 3.75 13.1597C1.67893 13.1597 0 14.6326 0 16.4495C0 18.2665 1.67893 19.7394 3.75 19.7394Z" fill="currentColor"/>
    <path d="M3.75 32.8986C5.82107 32.8986 7.5 31.4257 7.5 29.6087C7.5 27.7918 5.82107 26.3188 3.75 26.3188C1.67893 26.3188 0 27.7918 0 29.6087C0 31.4257 1.67893 32.8986 3.75 32.8986Z" fill="currentColor"/>
    <path d="M4 4.38672L4 29.8284" stroke="currentColor" stroke-width="1.875" stroke-linecap="round" stroke-linejoin="round"/>
</svg>
