<svg width="19" height="20" viewBox="0 0 19 20" fill="none" xmlns="http://www.w3.org/2000/svg">
    <path d="M9.49996 10.0002C10.5498 10.0002 11.5566 9.58313 12.2989 8.84079C13.0413 8.09846 13.4583 7.09164 13.4583 6.04183C13.4583 4.99201 13.0413 3.9852 12.2989 3.24287C11.5566 2.50053 10.5498 2.0835 9.49996 2.0835C8.45015 2.0835 7.44333 2.50053 6.701 3.24287C5.95867 3.9852 5.54163 4.99201 5.54163 6.04183C5.54163 7.09164 5.95867 8.09846 6.701 8.84079C7.44333 9.58313 8.45015 10.0002 9.49996 10.0002ZM9.49996 11.9793C5.53371 11.9793 2.30371 14.6393 2.30371 17.9168C2.30371 18.1385 2.47788 18.3127 2.69954 18.3127H16.3004C16.522 18.3127 16.6962 18.1385 16.6962 17.9168C16.6962 14.6393 13.4662 11.9793 9.49996 11.9793Z" fill="#231C2C"/>
</svg>
