<svg width="1362" height="1097" viewBox="0 0 1362 1097" fill="none" xmlns="http://www.w3.org/2000/svg">
    <path d="M0 311H1015C1124.5 317 1322 301.5 1322 521C1322 740.028 1038 710.5 1032 710.5C1027.2 710.5 616.667 710.5 412 710.5C368.833 713.334 282.5 743.1 282.5 839.5C282.5 935.9 282.5 1051 282.5 1096.5" stroke="#A2AEB8" stroke-width="80" stroke-linejoin="round"/>
    <rect x="242.537" y="816" width="80.4634" height="281" fill="url(#paint0_linear_0_1)"/>
    <path d="M0 311H1015C1124.5 317 1322 301.5 1322 521C1322 740.028 1038 710.5 1032 710.5C1027.2 710.5 616.667 710.5 412 710.5C368.833 713.334 282.5 743.1 282.5 839.5C282.5 935.9 282.5 1051 282.5 1096.5" stroke="white" stroke-width="2" stroke-linejoin="round" stroke-dasharray="12 12"/>
    <circle cx="176" cy="10" r="10" fill="#E25626"/>
    <circle cx="1270.5" cy="962.5" r="13.5" fill="#E25626"/>
    <circle cx="159.5" cy="631.5" r="8.5" fill="#E25626"/>
    <circle cx="1241" cy="891" r="6" fill="#E25626"/>
    <circle cx="1111" cy="1011" r="6" fill="#E25626"/>
    <path d="M639.071 335.174L629.047 329.442L629.096 340.989L639.071 335.174ZM539.431 336.171C541.466 336.327 555.876 336.369 573.836 336.357C591.836 336.345 613.486 336.278 630.075 336.212L630.067 334.212C613.479 334.278 591.831 334.345 573.835 334.357C555.799 334.369 541.517 334.326 539.585 334.177L539.431 336.171Z" fill="white"/>
    <path d="M842.041 691.855L852.065 697.587L852.017 686.04L842.041 691.855ZM941.681 690.858C939.647 690.702 925.236 690.66 907.276 690.673C889.276 690.685 867.626 690.752 851.037 690.818L851.045 692.818C867.633 692.752 889.281 692.685 907.277 692.673C925.313 692.66 939.595 692.704 941.528 692.853L941.681 690.858Z" fill="white"/>
    <circle cx="282.5" cy="945.5" r="9.5" fill="white"/>
    <defs>
        <linearGradient id="paint0_linear_0_1" x1="282.768" y1="816" x2="282.768" y2="1097" gradientUnits="userSpaceOnUse">
            <stop stop-color="#BAEF97" stop-opacity="0"/>
            <stop offset="1" stop-color="#BAEF97"/>
        </linearGradient>
    </defs>
</svg>
